<?xml version="1.0" encoding="UTF-8" standalone="no"?>
<!-- Created with Inkscape (http://www.inkscape.org/) -->

<svg
   version="1.1"
   id="svg2"
   xml:space="preserve"
   width="330"
   height="300.1123"
   viewBox="0 0 330 300.1123"
   xmlns="http://www.w3.org/2000/svg"
   xmlns:svg="http://www.w3.org/2000/svg"><defs
     id="defs6"><clipPath
       clipPathUnits="userSpaceOnUse"
       id="clipPath16"><path
         d="M 0,841.89 H 595.276 V 0 H 0 Z"
         id="path14" /></clipPath></defs><g
     id="g8"
     transform="matrix(1.3333333,0,0,-1.3333333,-112.90197,820.2849)"><g
       id="g10"
       transform="matrix(0.60721293,0,0,0.60721293,33.259825,241.64798)"><g
         id="g12"
         clip-path="url(#clipPath16)"><g
           id="g18"
           transform="translate(106.9316,452.7023)"><path
             d="m 0,0 c 2.774,1.027 4.492,2.402 5.312,5.488 0.723,2.7 -0.457,6.094 -3.359,6.864 -8.129,2.156 -8.187,-13.45 -18.203,-10.786 -4.5,1.207 -7.101,6.375 -5.559,12.192 1.036,3.832 3.969,7.226 7.512,8.012 l 0.629,-2.317 c -2.566,-0.605 -4.793,-2.023 -5.683,-5.34 -0.864,-3.207 0.863,-5.664 3.531,-6.383 C -9.238,5.977 -8.121,21.32 2.008,18.617 7.16,17.246 9.227,11.34 7.844,6.098 6.699,1.863 4.68,-1.238 0.848,-2.527 Z"
             style="fill:#231f20;fill-opacity:1;fill-rule:nonzero;stroke:none"
             id="path20" /></g><g
           id="g22"
           transform="translate(117.9863,473.1359)"><path
             d="m 0,0 -26.351,12.145 2.554,5.511 11.586,-5.328 5.524,12 -11.559,5.356 2.531,5.507 L 10.625,23.02 8.078,17.52 -4.598,23.367 -10.148,11.371 2.527,5.52 Z"
             style="fill:#231f20;fill-opacity:1;fill-rule:nonzero;stroke:none"
             id="path24" /></g><g
           id="g26"
           transform="translate(132.1426,501.3156)"><path
             d="m 0,0 -24.48,15.531 3.238,5.137 L 3.25,5.102 Z"
             style="fill:#231f20;fill-opacity:1;fill-rule:nonzero;stroke:none"
             id="path28" /></g><g
           id="g30"
           transform="translate(138.6152,511.9094)"><path
             d="m 0,0 -22.254,18.594 3.883,4.644 9.789,-8.183 8.48,10.168 -9.785,8.16 3.891,4.656 L 16.262,19.453 12.379,14.805 1.656,23.75 -6.824,13.594 3.895,4.664 Z"
             style="fill:#231f20;fill-opacity:1;fill-rule:nonzero;stroke:none"
             id="path32" /></g><g
           id="g34"
           transform="translate(176.1895,577.4445)"><path
             d="m 0,0 c -3.48,0.848 -7.156,1.367 -10.625,-1.156 -6.371,-4.586 -6.574,-11.121 -1.676,-17.922 3.797,-5.293 10.5,-8.289 16.52,-3.981 3.863,2.79 5.695,7.243 4.976,11.399 l 2.278,0.488 c 0.797,-6.144 -1.883,-10.836 -6.899,-14.437 -7.379,-5.305 -17.32,-4.02 -22.047,2.562 -5.406,7.508 -3.023,17.121 4.66,22.645 4.114,2.953 9.235,3.672 13.594,2.383 z"
             style="fill:#231f20;fill-opacity:1;fill-rule:nonzero;stroke:none"
             id="path36" /></g><g
           id="g38"
           transform="translate(193.9395,561.7141)"><path
             d="m 0,0 -12.688,26.094 5.454,2.636 5.589,-11.457 11.872,5.793 -5.582,11.473 5.468,2.652 L 22.801,11.109 17.344,8.465 11.254,21 -0.66,15.223 5.453,2.668 Z"
             style="fill:#231f20;fill-opacity:1;fill-rule:nonzero;stroke:none"
             id="path40" /></g><g
           id="g42"
           transform="translate(222.8145,574.7141)"><path
             d="M 0,0 -9.512,27.41 -3.754,29.391 5.734,1.977 Z"
             style="fill:#231f20;fill-opacity:1;fill-rule:nonzero;stroke:none"
             id="path44" /></g><g
           id="g46"
           transform="translate(234.9551,578.8703)"><path
             d="m 0,0 -6.695,28.215 18.55,4.387 0.426,-1.829 -12.609,-2.992 2.586,-10.883 11.887,2.84 0.437,-1.851 L 2.672,15.066 5.48,3.227 18.297,6.266 18.742,4.445 Z"
             style="fill:#231f20;fill-opacity:1;fill-rule:nonzero;stroke:none"
             id="path48" /></g><g
           id="g50"
           transform="translate(258.0371,584.1477)"><path
             d="m 0,0 -2.523,28.891 5.39,0.468 18.559,-18.41 h 0.097 l -1.769,19.895 2.59,0.222 L 24.895,2.191 22.199,1.945 0.664,23.285 0.57,23.269 2.594,0.238 Z"
             style="fill:#231f20;fill-opacity:1;fill-rule:nonzero;stroke:none"
             id="path52" /></g><g
           id="g54"
           transform="translate(313.1045,613.5305)"><path
             d="m 0,0 -2.938,-20.504 c -0.648,-4.441 3.446,-6.699 5.911,-7.051 2.804,-0.414 7.804,-0.226 8.504,4.703 l 3.011,20.778 2.543,-0.387 -3.082,-21.437 c -0.527,-3.672 -4.254,-7.61 -12.332,-6.442 -5.285,0.742 -11.622,3.524 -10.559,10.832 l 2.949,20.375 z"
             style="fill:#231f20;fill-opacity:1;fill-rule:nonzero;stroke:none"
             id="path56" /></g><g
           id="g58"
           transform="translate(331.835,581.1359)"><path
             d="M 0,0 8.684,27.676 13.855,26.031 23.969,1.949 24.062,1.906 30.039,20.965 32.484,20.187 23.828,-7.496 21.262,-6.691 9.488,21.266 9.391,21.301 2.461,-0.766 Z"
             style="fill:#231f20;fill-opacity:1;fill-rule:nonzero;stroke:none"
             id="path60" /></g><g
           id="g62"
           transform="translate(361.5459,570.8)"><path
             d="M 0,0 11.934,26.445 17.465,23.953 5.535,-2.484 Z"
             style="fill:#231f20;fill-opacity:1;fill-rule:nonzero;stroke:none"
             id="path64" /></g><g
           id="g66"
           transform="translate(405.1748,580.4289)"><path
             d="m 0,0 2.477,-1.453 -26.063,-19.281 -0.078,0.074 3.359,32.562 5.438,-3.207 -1.985,-21.066 z"
             style="fill:#231f20;fill-opacity:1;fill-rule:nonzero;stroke:none"
             id="path68" /></g><g
           id="g70"
           transform="translate(395.0811,552.1555)"><path
             d="M 0,0 17.969,22.762 32.898,10.973 31.773,9.488 21.562,17.52 14.633,8.742 24.242,1.16 23.055,-0.32 13.477,7.273 5.914,-2.285 16.258,-10.449 15.094,-11.91 Z"
             style="fill:#231f20;fill-opacity:1;fill-rule:nonzero;stroke:none"
             id="path72" /></g><g
           id="g74"
           transform="translate(413.3232,537.3703)"><path
             d="M 0,0 21.047,19.969 30.625,9.867 c 4.031,-4.238 3.469,-9.312 0.094,-12.496 -3.203,-3.07 -7.078,-1.805 -10.789,1.32 L 16.008,-16.848 11.406,-12 16.125,4.598 16.406,4.305 C 20.094,0.414 23.852,-0.809 27,2.172 c 2.344,2.23 3.5,5.734 -0.57,10.031 L 24.164,14.59 4.187,-4.418 Z"
             style="fill:#231f20;fill-opacity:1;fill-rule:nonzero;stroke:none"
             id="path76" /></g><g
           id="g78"
           transform="translate(436.5264,519.2883)"><path
             d="m 0,0 c -1.031,-2.781 -1.047,-4.98 0.797,-7.594 1.57,-2.281 4.937,-3.566 7.383,-1.859 6.89,4.824 -5.039,14.945 3.492,20.902 3.812,2.649 9.437,1.297 12.89,-3.633 2.29,-3.238 2.969,-7.683 1.313,-10.918 l -2.188,1.028 c 1.172,2.351 1.532,4.965 -0.421,7.769 -1.907,2.731 -4.891,3.036 -7.157,1.426 -5.578,-3.902 5.43,-14.625 -3.164,-20.652 -4.359,-3.028 -10.218,-0.824 -13.32,3.605 -2.516,3.594 -3.578,7.164 -2.109,10.91 z"
             style="fill:#231f20;fill-opacity:1;fill-rule:nonzero;stroke:none"
             id="path80" /></g><g
           id="g82"
           transform="translate(445.0889,496.6945)"><path
             d="M 0,0 25.516,13.824 28.391,8.504 2.891,-5.312 Z"
             style="fill:#231f20;fill-opacity:1;fill-rule:nonzero;stroke:none"
             id="path84" /></g><g
           id="g86"
           transform="translate(452.3857,482.2336)"><path
             d="M 0,0 25.008,10.48 22.523,16.387 24.25,17.109 31.562,-0.316 29.828,-1.031 27.359,4.863 2.344,-5.617 Z"
             style="fill:#231f20;fill-opacity:1;fill-rule:nonzero;stroke:none"
             id="path88" /></g><g
           id="g90"
           transform="translate(491.3545,456.0578)"><path
             d="M 0,0 0.922,-3.523 -15.578,3 -29.797,-0.773 -31.359,5.094 -18.016,8.629 -6.164,23.117 -4.328,16.242 -13.359,5.25 Z"
             style="fill:#231f20;fill-opacity:1;fill-rule:nonzero;stroke:none"
             id="path92" /></g><g
           id="g94"
           transform="translate(471.042,390.9045)"><path
             d="M 0,0 C 12.906,14.699 14.094,32.778 7.391,39.872 -5.094,45.919 -24.031,27.708 -26.422,17.105 -43.516,8.855 -49.734,3.117 -54.375,-12.414 c -2.641,-1.746 -6.719,-2.426 -12.141,-6.344 -0.64,-0.742 -2.812,3.504 -2.687,3.262 0.117,-0.266 0.765,62.071 0.765,62.071 h 59.407 l -173.29,88.457 -177.036,-86.16 57.809,-0.047 c 0,0 -0.297,-65.36 -0.121,-66.391 -4.183,-1.235 -8.129,-0.309 -11.129,3.535 -6.586,20.703 -18.961,26.168 -27.547,29.578 -1.562,8.536 -15.445,28.97 -40.762,21.575 -6.222,-9.316 4.676,-26.599 10.434,-34.794 -3.664,-2.375 -7.027,-3.176 -9.625,-5.492 -0.609,-20.473 24.946,-34.188 27.539,-33.805 1.684,-3.422 5.453,-8.547 10.867,-15.875 1.387,-1.672 -3.101,-2.328 -3.101,-2.031 3.863,-15.117 18.23,-28.234 41.082,-24.367 0.203,-0.367 0.07,-29.086 0.07,-29.086 0,0 75.766,-0.078 75.641,-0.078 4.543,0.461 4.418,-0.328 2.863,-3.477 -4.219,-7.32 -8.16,-12.101 -15.117,-19.445 8.086,-2.797 17.344,-13.594 21.707,-15.047 2.781,1.563 8.824,16.164 15.035,20.812 2.355,-0.312 4.344,-4.593 7.453,-6.14 6.227,-1.539 8.652,5.375 14.559,0.437 6.105,-1.156 10.301,4.594 11.879,7.719 11.282,-4.969 14.786,-19.422 19.887,-20.89 6.575,5.648 17.473,11.062 20.813,14.281 0,5.851 -15.777,16.906 -14.238,21.578 0.328,0.055 73.671,0.172 73.671,0.172 0,0 -0.265,22.648 -0.32,22.593 0.383,4.579 5.805,3.399 5.805,3.399 16.539,-1.414 40.133,15.07 35.953,30.406 4.328,4.461 5.875,7.508 8.648,14.235 C 8.727,-31.117 11.266,-9.789 11.547,-5.52 8.078,-1.977 2.867,-2.398 0,0"
             style="fill:#409c3e;fill-opacity:1;fill-rule:nonzero;stroke:none"
             id="path96" /></g><g
           id="g98"
           transform="translate(471.042,390.9045)"><path
             d="M 0,0 C 12.906,14.699 14.094,32.778 7.391,39.872 -5.094,45.919 -24.031,27.708 -26.422,17.105 -43.516,8.855 -49.734,3.117 -54.375,-12.414 c -2.641,-1.746 -6.719,-2.426 -12.141,-6.344 -0.64,-0.742 -2.812,3.504 -2.687,3.262 0.117,-0.266 0.765,62.071 0.765,62.071 h 59.407 l -173.29,88.457 -177.036,-86.16 57.809,-0.047 c 0,0 -0.297,-65.36 -0.121,-66.391 -4.183,-1.235 -8.129,-0.309 -11.129,3.535 -6.586,20.703 -18.961,26.168 -27.547,29.578 -1.562,8.536 -15.445,28.97 -40.762,21.575 -6.222,-9.316 4.676,-26.599 10.434,-34.794 -3.664,-2.375 -7.027,-3.176 -9.625,-5.492 -0.609,-20.473 24.946,-34.188 27.539,-33.805 1.684,-3.422 5.453,-8.547 10.867,-15.875 1.387,-1.672 -3.101,-2.328 -3.101,-2.031 3.863,-15.117 18.23,-28.234 41.082,-24.367 0.203,-0.367 0.07,-29.086 0.07,-29.086 0,0 75.766,-0.078 75.641,-0.078 4.543,0.461 4.418,-0.328 2.863,-3.477 -4.219,-7.32 -8.16,-12.101 -15.117,-19.445 8.086,-2.797 17.344,-13.594 21.707,-15.047 2.781,1.563 8.824,16.164 15.035,20.812 2.355,-0.312 4.344,-4.593 7.453,-6.14 6.227,-1.539 8.652,5.375 14.559,0.437 6.105,-1.156 10.301,4.594 11.879,7.719 11.282,-4.969 14.786,-19.422 19.887,-20.89 6.575,5.648 17.473,11.062 20.813,14.281 0,5.851 -15.777,16.906 -14.238,21.578 0.328,0.055 73.671,0.172 73.671,0.172 0,0 -0.265,22.648 -0.32,22.593 0.383,4.579 5.805,3.399 5.805,3.399 16.539,-1.414 40.133,15.07 35.953,30.406 4.328,4.461 5.875,7.508 8.648,14.235 C 8.727,-31.117 11.266,-9.789 11.547,-5.52 8.078,-1.977 2.867,-2.398 0,0 m 0.859,31.673 c 6.36,-12.516 -10.07,-33.157 -20.64,-35.255 -10.953,4.773 5.453,34.013 20.64,35.255 M -34.938,4.187 c 10.524,-9.332 -3.484,-34.179 -10.867,-34.578 -5.851,7.84 -1.054,26.356 10.867,34.578 m -4.531,50.595 -82.562,-0.058 -18.133,8.761 V 28.677 l 26.906,0.066 0.117,17.688 37.297,0.144 -0.062,-59.809 -101.646,-0.75 -0.293,138.887 z m -32.015,-75.837 -6.664,-9.699 -213.263,1.133 -6.461,7.883 z m -251.259,77.693 133.898,66.718 -0.746,-37.871 -39.472,-21.757 39.101,-0.118 -0.07,-76.462 -103.43,0.059 0.559,60.915 39.785,-0.383 -0.199,-18.629 22,-0.757 0.382,27.5 z M -335.735,4.234 c 12.82,-8.07 16.547,-25.601 12.433,-33.855 -18.425,6.512 -19.597,39.098 -12.433,33.855 m -34.938,26.443 c 10.258,-1.723 24.93,-11.861 25.68,-32.208 -15.984,-3.114 -32,24.368 -25.68,32.208 m 1.496,-41.228 c 1.129,2.246 19.91,4.598 30.457,-13.984 -9.09,-10.5 -30.457,9.137 -30.457,13.984 m 28.832,-29.84 c 2.985,7.383 22.586,-0.539 24.883,-9.312 -6.469,-5.867 -21.156,3.344 -24.883,9.312 m 30.664,-30.765 c -9.324,-1.539 -24.816,7.187 -22.152,12.062 5.422,7.914 32.273,-11.297 22.152,-12.062 m -3.918,44.683 c 3.336,0 12.028,-3.355 16.469,-19.816 -0.391,-11.586 -24.801,16.09 -16.469,19.816 m 8.946,-32.746 c 6.933,2.797 19.664,-5.5 23.382,-13.789 -3.265,-5.461 -23.722,4.774 -23.382,13.789 m 100.32,-53.437 c -6.227,-7.797 -10.574,-13.672 -16.789,-19.914 -3.723,0.148 -3.453,1.117 -3.527,4.976 0.609,2.672 5.925,10.305 13.675,18.078 3.106,1.571 11.27,1.969 6.641,-3.14 m 22.766,-10.594 c -1.575,0 -4.926,1.172 -4.926,2.742 -3.098,-3.117 -6.27,-4.305 -7.844,0.367 0.328,6.594 3.824,12 8.863,12.125 3.141,-1.125 9.711,-9.461 3.907,-15.234 m 35.044,-8.125 c -6.211,7.75 -12.434,15.156 -20.197,21.375 1.547,1.562 1.512,3.328 4.301,1.266 4.247,-3.219 15.982,-10.516 18.22,-16.664 2.89,-1.977 1.133,-3.539 -2.324,-5.977 m 57.945,55.477 c -5.75,8.609 18.937,19.617 21.765,16.296 2.047,-5.132 -12.453,-16.961 -21.765,-16.296 m 15.844,22.296 c -8.75,0 2.921,28.704 17.781,28.704 5.031,-14.793 -12.36,-27.946 -17.781,-28.704 m 7.336,-18.742 c 6.929,14.156 23.585,15.516 28.476,13.625 1.234,-4.156 -17.062,-19.328 -28.476,-13.625 m 8.21,19.844 c -3.734,4.859 19.11,22.715 29.954,17.773 0.89,-6.773 -22.11,-24.117 -29.954,-17.773 m 26.344,23.309 c -0.015,11.847 27.11,27.543 31.578,19.023 -3.109,-12.461 -16.789,-21.437 -31.578,-19.023"
             style="fill:#231f20;fill-opacity:1;fill-rule:nonzero;stroke:none"
             id="path100" /></g><g
           id="g102"
           transform="translate(234.8809,351.2482)"><path
             d="m 0,0 h 8 v -3.125 h 30.547 c 1.98,0 2.863,-0.859 2.656,-2.586 -0.312,-3.141 -0.887,-6.305 -1.719,-9.492 -2.449,0.492 -4.871,0.953 -7.265,1.398 0.519,1.282 0.965,2.727 1.328,4.321 0.105,0.57 -0.184,0.859 -0.859,0.859 h -56.114 c -0.469,0 -0.699,-0.203 -0.699,-0.602 V -14.5 H -31.5 v 10.242 c 0.051,0.758 0.496,1.133 1.324,1.133 H 0 Z m 28.766,-26.633 c -0.106,-0.351 -0.34,-0.617 -0.704,-0.789 -0.574,-0.266 -1.199,-0.375 -1.875,-0.328 h -47.109 c -1.094,0.047 -1.902,0.266 -2.422,0.656 -0.519,0.399 -0.754,0.75 -0.703,1.055 l 0.86,4.539 h -8.204 v 5 h 9.219 l 1.094,5.445 c 0.105,0.305 0.312,0.532 0.625,0.664 0.574,0.172 1.121,0.266 1.641,0.266 h 46.484 c 0.676,0 1.277,-0.156 1.797,-0.469 0.574,-0.304 0.832,-0.617 0.781,-0.922 L 29.703,-16.5 h 9.61 v -5 H 29.234 Z m -35.293,-26.492 1.406,-3.188 c -9.063,-3.32 -15.707,-5.515 -19.926,-6.578 l -2.031,6.047 c 3.332,0.883 7.058,2.016 11.176,3.391 0.312,0.172 0.625,0.281 0.937,0.328 h -8.597 c -0.625,0 -0.938,0.289 -0.938,0.859 v 22.969 c 0,0.531 0.313,0.797 0.938,0.797 h 55.796 c 0.676,0 1.016,-0.266 1.016,-0.797 v -22.969 c 0,-0.57 -0.34,-0.859 -1.016,-0.859 h -9.066 c 6.047,-1.773 10.316,-2.984 12.816,-3.656 l -2.734,-5.844 c -8.598,2.391 -15.395,4.547 -20.395,6.445 l 1.641,3.055 z M 25.5,-35.5 v 1.469 c 0,0.187 -0.105,0.281 -0.313,0.281 h -41.703 c -0.207,0 -0.285,-0.094 -0.234,-0.281 V -35.5 Z m -42.25,-11.125 v -0.953 c -0.051,-0.156 0.027,-0.258 0.234,-0.297 h 41.703 c 0.208,0.039 0.313,0.141 0.313,0.297 v 0.953 z m 42.25,6.375 h -42.25 v -1.625 H 25.5 Z M -0.375,-21.5 h -15.313 c -0.207,-0.781 0.262,-1.242 1.407,-1.375 h 13.672 z m 1.25,6.375 h -14.219 c -0.73,-0.047 -1.172,-0.414 -1.328,-1.109 V -16.5 H 0.641 Z m 6.016,-7.75 h 13.75 c 0.625,0.047 1.015,0.391 1.171,1.047 V -21.5 H 7.125 Z m 1.25,6.375 h 14.218 c 0.106,0.914 -0.339,1.375 -1.328,1.375 H 8.375 Z"
             style="fill:#ffffff;fill-opacity:1;fill-rule:nonzero;stroke:none"
             id="path104" /></g><g
           id="g106"
           transform="translate(293.8574,320.4904)"><path
             d="m 0,0 h 7.375 v -22.117 c 0.805,0.305 1.637,0.547 2.5,0.726 V 6.383 H 0.344 c -0.731,0 -1.094,0.328 -1.094,1 v 21.945 c 0.051,0.617 0.418,0.93 1.09,0.93 h 23.868 c 0.777,-0.047 1.168,-0.356 1.168,-0.93 V 7.43 c 0,-0.664 -0.387,-0.993 -1.16,-0.993 h -6.59 V 0.133 h 8 v -6.25 h -8 V -18.93 c 3.75,1.328 6.668,2.407 8.75,3.25 l 3.438,-6.172 c -2.395,-1.062 -6.278,-2.484 -11.641,-4.25 -7.364,-2.39 -13.419,-4.14 -18.173,-5.25 l -3.203,6.313 c 0.988,0.266 2.058,0.531 3.203,0.797 z M 7.309,23.633 C 7.105,23.633 7,23.547 7,23.367 V 13.336 c 0,-0.219 0.105,-0.328 0.309,-0.328 h 9.93 c 0.258,0.047 0.387,0.156 0.387,0.328 v 10.031 c -0.051,0.18 -0.184,0.266 -0.387,0.266 z m 61.223,-26.188 0.782,-6.781 -12.032,-1.062 5.235,-1.985 c -2.188,-3.367 -4.481,-6.109 -6.875,-8.234 1.25,-0.891 2.371,-1.594 3.359,-2.125 1.563,-0.758 2.684,-1 3.359,-0.735 0.575,0.266 0.965,0.688 1.172,1.266 0.469,1.234 0.598,2.922 0.391,5.047 l 7.891,-1.469 c -0.469,-6.812 -2.032,-10.82 -4.688,-12.015 -1.98,-0.797 -4.402,-0.735 -7.266,0.203 -4.425,1.281 -8.046,3.117 -10.859,5.508 -5.73,-2.961 -12.578,-5.313 -20.547,-7.04 l -3.594,6.508 c 7.606,1.282 13.934,3.117 18.985,5.508 -1.719,2.039 -3.516,4.719 -5.391,8.039 l -9.687,-0.797 -1.328,6.774 7.812,0.593 c -0.781,1.688 -1.512,3.415 -2.187,5.188 l 7.578,2.32 c 0.988,-2.476 1.953,-4.742 2.89,-6.773 l 7.032,0.531 c -1.981,0.75 -3.907,1.195 -5.782,1.328 l 2.5,6.172 C 52.126,2.266 55.485,1.398 57.36,0.828 L 55.095,-3.688 Z M 68.22,25.07 68.923,18.227 48.532,16.695 c 0.676,-0.882 1.434,-1.75 2.266,-2.586 1.562,0.883 3.309,1.93 5.234,3.118 l 4.532,-5.375 c -1.512,-0.891 -2.84,-1.688 -3.985,-2.391 0.832,-0.578 1.59,-1.016 2.266,-1.328 1.512,-0.711 2.605,-0.906 3.281,-0.594 0.574,0.219 0.887,0.547 0.938,0.992 0.261,1.063 0.285,2.461 0.078,4.18 L 71.11,11.523 C 70.798,5.32 69.47,1.625 67.126,0.43 64.833,-0.461 61.423,-0.102 56.892,1.492 56.11,1.805 53.454,3.242 48.923,5.805 42.411,3.195 35.329,1.555 27.673,0.898 l -1.719,6.766 c 1.043,0.141 2.11,0.203 3.203,0.203 3.594,0.485 8.36,1.461 14.297,2.922 -0.262,0.266 -1.562,2.016 -3.906,5.25 l -11.406,-0.797 -1.328,6.703 9.062,0.664 c -1.144,2.344 -2.293,4.914 -3.437,7.703 l 7.5,2.458 c 1.613,-3.762 3.074,-6.934 4.375,-9.497 l 7.109,0.532 c -0.363,0.218 -2.578,0.953 -6.641,2.187 l 3.125,5.914 c 2.762,-0.664 6.094,-1.816 10,-3.453 l -2.89,-4.383 z m -13.828,-35.664 -7.5,-0.601 c 0.988,-1.547 2.058,-3.008 3.203,-4.375 1.301,1.148 2.734,2.804 4.297,4.976"
             style="fill:#ffffff;fill-opacity:1;fill-rule:nonzero;stroke:none"
             id="path108" /></g></g></g></g></svg>
